<svg xmlns="http://www.w3.org/2000/svg" width="512" height="512" viewBox="0 0 1024 1024">
  <defs>
    <mask id="cutmask">
      <!-- White = show, Black = hide -->
      <rect width="1024" height="1024" fill="white"/>
      <!-- These are the black cutout segments that create spoke separations -->
      <path fill="black" d="M499.804 343.33C593.065 336.582 674.102 406.798 680.701 500.07C687.3 593.341 616.956 674.266 523.673 680.717C430.601 687.152 349.897 617.001 343.314 523.939C336.73 430.877 406.753 350.062 499.804 343.33Z"/>
      <path fill="black" d="M498.774 371.456C576.612 364.163 645.565 421.491 652.607 499.351C659.649 577.212 602.1 645.98 524.217 652.771C446.688 659.531 378.301 602.3 371.291 524.794C364.281 447.287 421.291 378.716 498.774 371.456Z"/>
      <path fill="black" d="M538.378 223.881C551.021 225.882 562.162 226.837 575.123 229.671C615.739 238.551 665.461 261.606 696.57 289.532C692.451 300.524 692.76 305.889 697.032 316.846C684.955 329.974 670.471 344.077 657.817 356.922L636.575 378.092C602.199 348.202 565.171 330.819 518.781 329.479C519.267 301.607 518.855 270.832 518.74 242.781C528.387 239.844 535.883 234.098 538.378 223.881Z"/>
      <path fill="black" d="M636.329 645.901C639.501 648.761 642.733 652.008 645.704 655.106C662.511 672.64 680.87 689.401 697.247 707.305C692.249 717.041 692.954 724.258 696.513 734.322C691.937 738.611 682.091 745.699 676.921 749.292C646.461 770.779 612.015 785.964 575.605 793.957C567.893 796.262 546.803 799.361 538.666 799.635C534.797 789.718 529.269 784.091 518.721 781.304C519.089 772.626 518.791 761.831 518.771 752.984C518.638 733.519 518.671 714.053 518.869 694.588C564.493 692.685 602.545 676.294 636.329 645.901Z"/>
      <path fill="black" d="M483.33 224.216L484.498 224.068C488.386 226.313 487.639 238.208 505.108 242.777C504.602 270.918 504.99 301.174 505.117 329.383C459.774 331.152 421.351 347.791 387.835 377.971C381.173 371.827 373.903 364.178 367.433 357.689C355.369 345.412 337.755 329.186 326.857 316.602C331.411 307.282 331.708 299.197 327.453 289.76C332.762 284.602 344.398 276.277 350.69 272.057C392.317 244.143 433.993 229.854 483.33 224.216Z"/>
      <path fill="black" d="M706.564 326.784C706.723 326.806 711.229 328.528 711.819 328.72C721.548 331.892 725.522 330.899 734.802 327.383C766.66 366.401 788.037 412.903 796.909 462.488C798.197 469.673 799.027 477.944 799.873 485.269C789.369 489.209 784.549 494.592 781.153 505.276C769.144 505.219 757.134 505.224 745.125 505.29C728.334 505.315 711.318 505.008 694.576 505.248C692.596 458.295 676.862 422.791 646.247 387.802C651.498 381.72 661.412 372.312 667.267 366.44C680.453 353.307 693.552 340.089 706.564 326.784Z"/>
      <path fill="black" d="M316.495 326.974C319.356 327.429 365.826 376.398 373.087 382.841C373.981 383.634 376.737 386.717 377.668 387.777C346.683 423.109 332.043 458.006 329.302 505.139L282.25 505.223C269.159 505.165 256.068 505.179 242.978 505.264C239.798 494.856 234.376 488.758 223.975 485.266C229.642 437.125 242.399 397.004 268.716 355.891C274.544 346.787 282.391 335.495 289.585 327.49C299.509 331.618 306.664 331.43 316.495 326.974Z"/>
      <path fill="black" d="M242.759 518.868L329.436 518.824C330.467 551.484 340.37 583.246 358.081 610.704C364.359 620.311 370.451 627.498 377.71 636.289C365.024 649.924 349.971 664.332 336.751 677.846C329.961 684.258 323.806 691.127 316.996 697.428C307.647 692.435 299.46 692.197 289.747 696.638C284.45 691.19 275.745 678.59 271.42 672.158C244.345 631.889 229.238 587.167 224.089 538.983C234.502 534.79 239.527 529.533 242.759 518.868Z"/>
      <path fill="black" d="M387.714 645.872C393.171 649.834 399.559 656.385 405.929 660.953C434.928 681.699 469.399 693.435 505.032 694.695L505.033 747.993C505.047 758.674 504.862 770.312 505.356 780.895C495.338 784.485 488.325 789.146 485.285 799.937C471.023 798.27 462.391 796.867 448.262 794.086C404.52 783.903 361.584 763.673 327.507 734.174C328.02 733.03 328.484 731.865 328.898 730.682C331.809 722.198 330.525 714.959 326.795 707.108C346.855 686.814 367.339 665.757 387.714 645.872Z"/>
      <path fill="black" d="M694.867 518.753C723.419 518.727 752.349 518.424 780.86 518.75C784.48 529.056 789.239 534.979 799.924 538.581C792.822 597.259 776.648 640.45 741.224 688.289C739.32 690.96 736.817 693.985 734.755 696.602C724.959 692.739 716.734 692.301 707.242 697.455L646.107 636.259C672.281 608.876 689.843 569.949 693.473 532.333C693.85 528.42 693.943 523.259 694.69 519.589L694.867 518.753Z"/>
    </mask>
  </defs>
  <!-- Orange orbital shape with mask applied for transparency -->
  <g mask="url(#cutmask)">
    <path fill="#F0A030" d="M508.278 188.599C523.324 187.118 535.529 195.264 538.791 210.331C592.114 216.46 632.61 229.192 678.375 258.823C688.143 265.148 696.795 272.364 706.127 279.249C707.6 278.417 709.634 277.316 711.223 276.728C718.501 274.002 726.575 274.348 733.594 277.686C740.398 280.985 745.536 286.951 747.791 294.169C750.474 302.878 748.66 310.049 744.683 317.766C751.369 326.329 758.171 335.106 764.158 344.182C792.153 386.144 809.142 434.475 813.559 484.724C816.951 485.624 819.807 486.655 822.802 488.534C829.132 492.493 833.537 498.9 834.967 506.228C837.949 521.008 829.204 536.251 813.735 538.79C813.256 547.167 810.91 560.917 809.346 569.222C801.791 608.61 786.491 646.106 764.335 679.537C758.188 688.848 751.6 697.319 744.872 706.198C746.001 708.242 747.097 710.495 747.774 712.73C750.112 720.195 749.321 728.29 745.582 735.161C742.072 741.567 736.098 746.261 729.045 748.157C720.48 750.484 713.405 748.951 705.978 744.61C653.209 786.77 605.884 805.699 539.065 813.608C535.521 826.412 529.148 832.538 516.431 835.496C508.992 836.194 501.822 834.912 495.609 830.522C489.993 826.5 486.131 820.481 484.816 813.7C432.608 808.232 387.911 792.986 343.974 764.085C334.452 757.821 326.824 751.105 317.784 744.735C316.027 745.829 313.532 747.11 311.56 747.787C304.521 750.166 296.824 749.639 290.175 746.323C283.48 742.918 278.451 736.946 276.235 729.77C273.479 720.777 275.094 714.221 279.288 706.352C272.606 696.048 264.333 686.778 257.666 676.347C232.208 636.519 213.033 586.65 210.374 539.125C208.122 538.559 205.762 537.903 203.675 536.882C196.938 533.652 191.841 527.774 189.597 520.647C184.146 503.743 194.038 489.502 210.394 484.735C213.461 437.887 232.435 385.919 258.072 346.916C264.913 336.51 271.613 327.9 279.278 318.162C274.301 308.274 272.951 298.157 279.019 288.171C282.853 281.775 289.131 277.22 296.4 275.559C303.816 273.902 311.586 275.29 317.969 279.412C327.17 272.237 335.552 265.626 345.298 259.185C388.141 230.871 434.324 215.471 485.241 210.294C486.54 197.843 496.885 190.871 508.278 188.599Z"/>
    <path fill="#F0A030" d="M500.454 359.807C584.606 353.422 657.978 416.513 664.274 500.671C670.57 584.829 607.402 658.135 523.237 664.342C439.198 670.54 366.025 607.486 359.739 523.454C353.452 439.421 416.428 366.182 500.454 359.807Z"/>
    <path fill="#F0A030" d="M508.458 424.149C556.987 422.187 597.896 459.983 599.773 508.515C601.651 557.048 563.784 597.891 515.248 599.684C466.832 601.472 426.111 563.719 424.238 515.306C422.366 466.893 460.048 426.106 508.458 424.149Z"/>
  </g>
</svg>
